<svg xmlns="http://www.w3.org/2000/svg" xmlns:xlink="http://www.w3.org/1999/xlink" width="500" zoomAndPan="magnify" viewBox="0 0 375 374.999991" height="500" preserveAspectRatio="xMidYMid meet" version="1.0"><defs><g/><clipPath id="434e9c5193"><path d="M 40.847656 172.523438 L 334.152344 172.523438 L 334.152344 202 L 40.847656 202 Z M 40.847656 172.523438 " clip-rule="nonzero"/></clipPath></defs><g fill="#231f20" fill-opacity="1"><g transform="translate(54.462259, 232.008926)"><g><path d="M 81.550781 -89.796875 L 3.992188 -89.796875 L 3.992188 -52.015625 L 4.789062 -52.015625 C 25.144531 -87.269531 25.277344 -87.402344 28.203125 -87.402344 L 29.667969 -87.402344 L 29.667969 -8.25 L 22.75 -0.796875 L 22.75 0 L 62.527344 0 L 62.527344 -0.796875 L 55.609375 -8.25 L 55.609375 -87.402344 L 57.339844 -87.402344 C 59.601562 -87.402344 60.265625 -87.269531 80.753906 -52.015625 L 81.550781 -52.015625 Z M 81.550781 -89.796875 "/></g></g></g><g fill="#231f20" fill-opacity="1"><g transform="translate(135.345158, 232.008926)"><g><path d="M 49.753906 -89.796875 L 49.753906 -89 C 54.675781 -77.691406 52.546875 -61.195312 42.039062 -50.019531 L 37.117188 -44.832031 L 37.117188 -81.550781 L 43.902344 -89 L 43.902344 -89.796875 L 4.257812 -89.796875 L 4.257812 -89 L 11.042969 -81.550781 L 11.042969 -8.25 L 4.257812 -0.796875 L 4.257812 0 L 43.902344 0 L 43.902344 -0.796875 L 37.117188 -8.25 L 37.117188 -41.375 L 37.648438 -41.90625 L 55.476562 -7.714844 L 48.957031 -0.796875 L 48.957031 0 L 86.207031 0 L 86.207031 -0.929688 L 59.867188 -54.808594 L 41.773438 -44.964844 L 41.375 -45.496094 L 86.472656 -89 L 86.472656 -89.796875 Z M 49.753906 -89.796875 "/></g></g></g><g fill="#231f20" fill-opacity="1"><g transform="translate(219.819899, 232.008926)"><g><path d="M 95.917969 -89.796875 L 68.113281 -89.796875 L 51.882812 -49.355469 L 51.21875 -49.355469 L 31.929688 -90.066406 L 3.191406 -89.796875 L 3.191406 -89 L 10.644531 -75.695312 L 10.644531 0 L 38.714844 0 L 38.714844 -0.664062 C 22.21875 -14.101562 13.570312 -31.796875 13.570312 -60.398438 L 13.570312 -69.3125 L 14.234375 -69.3125 L 40.441406 -15.832031 L 41.90625 -15.832031 L 64.121094 -70.507812 L 64.921875 -70.507812 L 65.054688 -7.714844 L 57.871094 -0.796875 L 57.871094 0 L 90.996094 0 L 90.863281 -82.082031 L 95.917969 -89 Z M 95.917969 -89.796875 "/></g></g></g><g clip-path="url(#434e9c5193)"><path fill="#fbfaf9" d="M 40.847656 172.523438 L 334.726562 172.523438 L 334.726562 201.738281 L 40.847656 201.738281 Z M 40.847656 172.523438 " fill-opacity="1" fill-rule="nonzero"/></g><g fill="#231f20" fill-opacity="1"><g transform="translate(71.566599, 190.332643)"><g><path d="M 3.105469 0 L 4.4375 0 L 4.4375 -5.75 L 7.484375 -5.75 L 7.484375 -6.796875 L 0.0585938 -6.796875 L 0.0585938 -5.75 L 3.105469 -5.75 Z M 3.105469 0 "/></g></g></g><g fill="#231f20" fill-opacity="1"><g transform="translate(86.770006, 190.332643)"><g><path d="M 0.480469 0 L 1.800781 0 L 1.800781 -6.796875 L 0.480469 -6.796875 Z M 0.480469 0 "/></g></g></g><g fill="#231f20" fill-opacity="1"><g transform="translate(96.717152, 190.332643)"><g><path d="M 0.480469 0 L 7.332031 0 L 7.332031 -0.96875 L 1.773438 -0.96875 L 1.773438 -3.046875 L 6.851562 -3.046875 L 6.851562 -3.9375 L 1.773438 -3.9375 L 1.773438 -5.816406 L 7.238281 -5.816406 L 7.238281 -6.796875 L 0.480469 -6.796875 Z M 0.480469 0 "/></g></g></g><g fill="#231f20" fill-opacity="1"><g transform="translate(111.901402, 190.332643)"><g><path d="M 7.582031 0.191406 C 8.109375 0.191406 8.597656 -0.0664062 8.886719 -0.421875 L 8.484375 -1.054688 C 8.339844 -0.832031 8.128906 -0.679688 7.917969 -0.679688 C 7.660156 -0.679688 7.523438 -0.863281 7.410156 -1.09375 L 6.929688 -2.0625 C 6.765625 -2.425781 6.546875 -2.703125 6.21875 -2.875 L 6.21875 -2.886719 C 7.464844 -3.019531 8.234375 -3.746094 8.234375 -4.765625 C 8.234375 -6.019531 7.246094 -6.796875 5.65625 -6.796875 L 0.480469 -6.796875 L 0.480469 0 L 1.8125 0 L 1.8125 -2.636719 L 4.582031 -2.636719 C 5.0625 -2.636719 5.464844 -2.339844 5.695312 -1.859375 L 6.210938 -0.757812 C 6.46875 -0.25 6.863281 0.191406 7.582031 0.191406 Z M 1.8125 -3.554688 L 1.8125 -5.847656 L 5.378906 -5.847656 C 6.308594 -5.847656 6.902344 -5.394531 6.902344 -4.6875 C 6.902344 -4.007812 6.308594 -3.554688 5.378906 -3.554688 Z M 1.8125 -3.554688 "/></g></g></g><g fill="#231f20" fill-opacity="1"><g transform="translate(128.445197, 190.332643)"><g><path d="M 7.582031 0.191406 C 8.109375 0.191406 8.597656 -0.0664062 8.886719 -0.421875 L 8.484375 -1.054688 C 8.339844 -0.832031 8.128906 -0.679688 7.917969 -0.679688 C 7.660156 -0.679688 7.523438 -0.863281 7.410156 -1.09375 L 6.929688 -2.0625 C 6.765625 -2.425781 6.546875 -2.703125 6.21875 -2.875 L 6.21875 -2.886719 C 7.464844 -3.019531 8.234375 -3.746094 8.234375 -4.765625 C 8.234375 -6.019531 7.246094 -6.796875 5.65625 -6.796875 L 0.480469 -6.796875 L 0.480469 0 L 1.8125 0 L 1.8125 -2.636719 L 4.582031 -2.636719 C 5.0625 -2.636719 5.464844 -2.339844 5.695312 -1.859375 L 6.210938 -0.757812 C 6.46875 -0.25 6.863281 0.191406 7.582031 0.191406 Z M 1.8125 -3.554688 L 1.8125 -5.847656 L 5.378906 -5.847656 C 6.308594 -5.847656 6.902344 -5.394531 6.902344 -4.6875 C 6.902344 -4.007812 6.308594 -3.554688 5.378906 -3.554688 Z M 1.8125 -3.554688 "/></g></g></g><g fill="#231f20" fill-opacity="1"><g transform="translate(144.988992, 190.332643)"><g><path d="M 0.480469 0 L 7.332031 0 L 7.332031 -0.96875 L 1.773438 -0.96875 L 1.773438 -3.046875 L 6.851562 -3.046875 L 6.851562 -3.9375 L 1.773438 -3.9375 L 1.773438 -5.816406 L 7.238281 -5.816406 L 7.238281 -6.796875 L 0.480469 -6.796875 Z M 0.480469 0 "/></g></g></g><g fill="#231f20" fill-opacity="1"><g transform="translate(160.173241, 190.332643)"><g/></g></g><g fill="#231f20" fill-opacity="1"><g transform="translate(170.608673, 190.332643)"><g><path d="M 0.480469 0 L 1.761719 0 L 1.761719 -5.40625 L 1.78125 -5.40625 L 4.734375 0 L 6.066406 0 L 9 -5.40625 L 9.019531 -5.40625 L 9.019531 0 L 10.304688 0 L 10.304688 -6.796875 L 8.433594 -6.796875 L 5.394531 -1.199219 L 5.386719 -1.199219 L 2.328125 -6.796875 L 0.480469 -6.796875 Z M 0.480469 0 "/></g></g></g><g fill="#231f20" fill-opacity="1"><g transform="translate(189.048171, 190.332643)"><g><path d="M 0.480469 0 L 1.800781 0 L 1.800781 -6.796875 L 0.480469 -6.796875 Z M 0.480469 0 "/></g></g></g><g fill="#231f20" fill-opacity="1"><g transform="translate(198.995318, 190.332643)"><g><path d="M 0.480469 0 L 4.746094 0 C 7.3125 0 8.742188 -1.21875 8.742188 -3.394531 C 8.742188 -5.578125 7.3125 -6.796875 4.746094 -6.796875 L 0.480469 -6.796875 Z M 1.792969 -1.007812 L 1.792969 -5.769531 L 4.628906 -5.769531 C 6.429688 -5.769531 7.4375 -4.925781 7.4375 -3.394531 C 7.4375 -1.859375 6.429688 -1.007812 4.628906 -1.007812 Z M 1.792969 -1.007812 "/></g></g></g><g fill="#231f20" fill-opacity="1"><g transform="translate(215.75932, 190.332643)"><g><path d="M 0.480469 0 L 4.746094 0 C 7.3125 0 8.742188 -1.21875 8.742188 -3.394531 C 8.742188 -5.578125 7.3125 -6.796875 4.746094 -6.796875 L 0.480469 -6.796875 Z M 1.792969 -1.007812 L 1.792969 -5.769531 L 4.628906 -5.769531 C 6.429688 -5.769531 7.4375 -4.925781 7.4375 -3.394531 C 7.4375 -1.859375 6.429688 -1.007812 4.628906 -1.007812 Z M 1.792969 -1.007812 "/></g></g></g><g fill="#231f20" fill-opacity="1"><g transform="translate(232.523323, 190.332643)"><g><path d="M 0.480469 0 L 6.164062 0 L 6.164062 -1.054688 L 1.8125 -1.054688 L 1.8125 -6.796875 L 0.480469 -6.796875 Z M 0.480469 0 "/></g></g></g><g fill="#231f20" fill-opacity="1"><g transform="translate(246.424632, 190.332643)"><g><path d="M 0.480469 0 L 7.332031 0 L 7.332031 -0.96875 L 1.773438 -0.96875 L 1.773438 -3.046875 L 6.851562 -3.046875 L 6.851562 -3.9375 L 1.773438 -3.9375 L 1.773438 -5.816406 L 7.238281 -5.816406 L 7.238281 -6.796875 L 0.480469 -6.796875 Z M 0.480469 0 "/></g></g></g><g fill="#231f20" fill-opacity="1"><g transform="translate(261.608881, 190.332643)"><g><path d="M 3.105469 0 L 4.4375 0 L 4.4375 -5.75 L 7.484375 -5.75 L 7.484375 -6.796875 L 0.0585938 -6.796875 L 0.0585938 -5.75 L 3.105469 -5.75 Z M 3.105469 0 "/></g></g></g><g fill="#231f20" fill-opacity="1"><g transform="translate(276.812299, 190.332643)"><g><path d="M 5.089844 0.238281 C 7.90625 0.238281 9.824219 -1.238281 9.824219 -3.394531 C 9.824219 -5.539062 7.90625 -7.035156 5.089844 -7.035156 C 2.28125 -7.035156 0.363281 -5.539062 0.363281 -3.394531 C 0.363281 -1.238281 2.28125 0.238281 5.089844 0.238281 Z M 5.089844 -0.796875 C 3.085938 -0.796875 1.695312 -1.859375 1.695312 -3.394531 C 1.695312 -4.925781 3.085938 -5.992188 5.089844 -5.992188 C 7.09375 -5.992188 8.492188 -4.925781 8.492188 -3.394531 C 8.492188 -1.859375 7.09375 -0.796875 5.089844 -0.796875 Z M 5.089844 -0.796875 "/></g></g></g><g fill="#231f20" fill-opacity="1"><g transform="translate(294.658192, 190.332643)"><g><path d="M 0.480469 0 L 1.761719 0 L 1.761719 -5.5 L 1.773438 -5.5 L 6.640625 0 L 8.308594 0 L 8.308594 -6.796875 L 7.015625 -6.796875 L 7.015625 -1.304688 L 7.007812 -1.304688 L 2.148438 -6.796875 L 0.480469 -6.796875 Z M 0.480469 0 "/></g></g></g></svg>